<svg width="16" height="16" viewBox="0 0 16 16" fill="none" xmlns="http://www.w3.org/2000/svg">
	<path fill-rule="evenodd" clip-rule="evenodd"
		d="M3.70548 0H12.2945C12.9603 0 13.5 0.554926 13.5 1.23946V10.9379C13.5 11.4046 13.2954 11.8464 12.9431 12.1406L8.56993 15.792C8.23784 16.0693 7.76216 16.0693 7.43007 15.792L3.05693 12.1406C2.70459 11.8464 2.5 11.4046 2.5 10.9379V1.23946C2.5 0.554926 3.03971 0 3.70548 0Z"
		fill="#1273EA" />
	<path fill-rule="evenodd" clip-rule="evenodd"
		d="M10.8316 1.85913C11.3388 1.85913 11.75 2.27533 11.75 2.78873V5.78721L11.7497 5.81171C11.737 6.42321 11.2497 6.91661 10.6457 6.92961L10.6211 6.92991L10.6453 6.93016C11.2494 6.94301 11.7368 7.43626 11.7497 8.04776L11.75 8.07261V9.94826C11.75 10.2151 11.6367 10.4691 11.439 10.6455L9.13201 12.7044L9.13206 8.50226C9.13206 7.98886 8.72089 7.57266 8.21369 7.57266H6.86792L6.86788 12.7044L4.56101 10.6455C4.36328 10.4691 4.25 10.2151 4.25 9.94826V2.78873C4.25 2.27533 4.66117 1.85913 5.16836 1.85913H10.8316ZM9.13206 3.14468H6.86792V6.00146H8.21369C8.72089 6.00146 9.13206 5.58526 9.13206 5.07186V3.14468Z"
		fill="white" />
</svg>