<svg width="54" height="55" viewBox="0 0 54 55" fill="none" xmlns="http://www.w3.org/2000/svg">
<path d="M50.4052 2.75L29.9277 17.9018L33.7357 8.97237L50.4052 2.75Z" fill="#E17726" stroke="#E17726" stroke-width="0.346467" stroke-linecap="round" stroke-linejoin="round"/>
<path d="M3.16992 2.75L23.465 18.0432L19.8395 8.97235L3.16992 2.75Z" fill="#E27625" stroke="#E27625" stroke-width="0.346467" stroke-linecap="round" stroke-linejoin="round"/>
<path d="M43.0305 37.8809L37.582 46.2043L49.2486 49.4165L52.5907 38.0628L43.0305 37.8809Z" fill="#E27625" stroke="#E27625" stroke-width="0.346467" stroke-linecap="round" stroke-linejoin="round"/>
<path d="M1.00391 38.0628L4.32564 49.4165L15.9721 46.2043L10.5438 37.8809L1.00391 38.0628Z" fill="#E27625" stroke="#E27625" stroke-width="0.346467" stroke-linecap="round" stroke-linejoin="round"/>
<path d="M15.3442 23.8207L12.1035 28.7098L23.6486 29.235L23.2638 16.8105L15.3442 23.8207Z" fill="#E27625" stroke="#E27625" stroke-width="0.346467" stroke-linecap="round" stroke-linejoin="round"/>
<path d="M38.23 23.8216L30.1891 16.6699L29.9258 29.2359L41.4708 28.7106L38.23 23.8216Z" fill="#E27625" stroke="#E27625" stroke-width="0.346467" stroke-linecap="round" stroke-linejoin="round"/>
<path d="M15.9707 46.2052L22.9585 42.8315L16.943 38.1445L15.9707 46.2052Z" fill="#E27625" stroke="#E27625" stroke-width="0.346467" stroke-linecap="round" stroke-linejoin="round"/>
<path d="M30.6152 42.8315L37.5827 46.2052L36.6307 38.1445L30.6152 42.8315Z" fill="#E27625" stroke="#E27625" stroke-width="0.346467" stroke-linecap="round" stroke-linejoin="round"/>
<path d="M37.5827 46.2058L30.6152 42.832L31.1823 47.3573L31.1215 49.2766L37.5827 46.2058Z" fill="#D5BFB2" stroke="#D5BFB2" stroke-width="0.346467" stroke-linecap="round" stroke-linejoin="round"/>
<path d="M15.9707 46.2058L22.4522 49.2766L22.4117 47.3573L22.9585 42.832L15.9707 46.2058Z" fill="#D5BFB2" stroke="#D5BFB2" stroke-width="0.346467" stroke-linecap="round" stroke-linejoin="round"/>
<path d="M22.5741 35.1539L16.7812 33.457L20.8726 31.5781L22.5741 35.1539Z" fill="#233447" stroke="#233447" stroke-width="0.346467" stroke-linecap="round" stroke-linejoin="round"/>
<path d="M31 35.1539L32.7015 31.5781L36.8131 33.457L31 35.1539Z" fill="#233447" stroke="#233447" stroke-width="0.346467" stroke-linecap="round" stroke-linejoin="round"/>
<path d="M15.9711 46.2043L16.9839 37.8809L10.543 38.0628L15.9711 46.2043Z" fill="#CC6228" stroke="#CC6228" stroke-width="0.346467" stroke-linecap="round" stroke-linejoin="round"/>
<path d="M36.5898 37.8809L37.5824 46.2043L43.0308 38.0628L36.5898 37.8809Z" fill="#CC6228" stroke="#CC6228" stroke-width="0.346467" stroke-linecap="round" stroke-linejoin="round"/>
<path d="M41.4708 28.7109L29.9258 29.2362L30.9992 35.1557L32.7007 31.5797L36.8123 33.4586L41.4708 28.7109Z" fill="#CC6228" stroke="#CC6228" stroke-width="0.346467" stroke-linecap="round" stroke-linejoin="round"/>
<path d="M16.7823 33.4586L20.8737 31.5797L22.5752 35.1557L23.6486 29.2362L12.1035 28.7109L16.7823 33.4586Z" fill="#CC6228" stroke="#CC6228" stroke-width="0.346467" stroke-linecap="round" stroke-linejoin="round"/>
<path d="M12.1035 28.7109L16.9444 38.1455L16.7822 33.4586L12.1035 28.7109Z" fill="#E27525" stroke="#E27525" stroke-width="0.346467" stroke-linecap="round" stroke-linejoin="round"/>
<path d="M36.8131 33.4586L36.6309 38.1455L41.4717 28.7109L36.8131 33.4586Z" fill="#E27525" stroke="#E27525" stroke-width="0.346467" stroke-linecap="round" stroke-linejoin="round"/>
<path d="M23.6478 29.2344L22.5742 35.1538L23.9313 42.1438L24.2351 32.9315L23.6478 29.2344Z" fill="#E27525" stroke="#E27525" stroke-width="0.346467" stroke-linecap="round" stroke-linejoin="round"/>
<path d="M29.9266 29.2344L29.3594 32.9114L29.643 42.1438L31 35.1538L29.9266 29.2344Z" fill="#E27525" stroke="#E27525" stroke-width="0.346467" stroke-linecap="round" stroke-linejoin="round"/>
<path d="M30.9996 35.1541L29.6426 42.144L30.6148 42.831L36.6305 38.144L36.8127 33.457L30.9996 35.1541Z" fill="#F5841F" stroke="#F5841F" stroke-width="0.346467" stroke-linecap="round" stroke-linejoin="round"/>
<path d="M16.7812 33.457L16.9434 38.144L22.9589 42.831L23.9311 42.144L22.5741 35.1541L16.7812 33.457Z" fill="#F5841F" stroke="#F5841F" stroke-width="0.346467" stroke-linecap="round" stroke-linejoin="round"/>
<path d="M31.1211 49.2759L31.1818 47.3566L30.6553 46.9121H22.9181L22.4117 47.3566L22.4522 49.2759L15.9707 46.2051L18.2392 48.0637L22.837 51.2355H30.7159L35.334 48.0637L37.5822 46.2051L31.1211 49.2759Z" fill="#C0AC9D" stroke="#C0AC9D" stroke-width="0.346467" stroke-linecap="round" stroke-linejoin="round"/>
<path d="M30.6152 42.8313L29.6429 42.1445H23.9311L22.959 42.8313L22.4121 47.3568L22.9185 46.9123H30.6557L31.1824 47.3568L30.6152 42.8313Z" fill="#161616" stroke="#161616" stroke-width="0.346467" stroke-linecap="round" stroke-linejoin="round"/>
<path d="M51.2748 18.8917L52.9965 10.5279L50.4038 2.75L30.6152 17.3968L38.2308 23.8211L48.986 26.9526L51.3558 24.1849L50.3229 23.4373L51.9634 21.9424L50.7077 20.9726L52.3484 19.7201L51.2748 18.8917Z" fill="#763E1A" stroke="#763E1A" stroke-width="0.346467" stroke-linecap="round" stroke-linejoin="round"/>
<path d="M0.578125 10.5279L2.32002 18.8917L1.20602 19.7201L2.86689 20.9726L1.61111 21.9424L3.25172 23.4373L2.21874 24.1849L4.58853 26.9526L15.3438 23.8211L22.9594 17.3968L3.17071 2.75L0.578125 10.5279Z" fill="#763E1A" stroke="#763E1A" stroke-width="0.346467" stroke-linecap="round" stroke-linejoin="round"/>
<path d="M48.9861 26.9516L38.231 23.8203L41.4717 28.7093L36.6309 38.1438L43.0313 38.063H52.5914L48.9861 26.9516Z" fill="#F5841F" stroke="#F5841F" stroke-width="0.346467" stroke-linecap="round" stroke-linejoin="round"/>
<path d="M15.3441 23.8203L4.58896 26.9516L1.00391 38.063H10.5438L16.9442 38.1438L12.1034 28.7093L15.3441 23.8203Z" fill="#F5841F" stroke="#F5841F" stroke-width="0.346467" stroke-linecap="round" stroke-linejoin="round"/>
<path d="M29.9266 29.2358L30.6153 17.397L33.7344 8.97266H19.8398L22.959 17.397L23.6476 29.2358L23.911 32.953L23.9312 42.1451H29.643L29.6633 32.953L29.9266 29.2358Z" fill="#F5841F" stroke="#F5841F" stroke-width="0.346467" stroke-linecap="round" stroke-linejoin="round"/>
</svg>
